# xmcd
# Copyright (C) 1995-1998 Ti Kan
#
# Track frame offsets:
#       150
#       18743
#       34089
#       52742
#       70027
#       84764
#       103725
#       125456
#       144645
#       163655
#       184108
#
# Disc length: 3197 seconds
#
# Revision: 2
# Processed by: cddbd v1.4PL0 Copyright (c) Steve Scherf et al.
# Submitted via: CD-Transfer v1.0
#
DISCID=8b0c7b0b
DTITLE=Eleven 25 - At Eleven Twenty-Five
DYEAR=2001
DGENRE=
TTITLE0=When You Love
TTITLE1=She Said
TTITLE2=The End
TTITLE3=Love Reactor
TTITLE4=Thank You
TTITLE5=Behind The Curtains
TTITLE6=Bye Bye Superhero
TTITLE7=Cause I Love You
TTITLE8=Robin Hood
TTITLE9=Heal
TTITLE10=Day By Day
EXTD=
EXTT0=
EXTT1=
EXTT2=
EXTT3=
EXTT4=
EXTT5=
EXTT6=
EXTT7=
EXTT8=
EXTT9=
EXTT10=
PLAYORDER=
